<svg xmlns="http://www.w3.org/2000/svg" xmlns:xlink="http://www.w3.org/1999/xlink" height="200" width="400"><polygon points="0,200 0,100 1,99 2,98 3,97 4,96 5,95 6,94 7,93 8,94 9,95 10,94 11,93 12,94 13,93 14,94 15,95 16,94 17,95 18,94 19,93 20,92 21,93 22,94 23,95 24,96 25,95 26,94 27,95 28,94 29,93 30,94 31,95 32,94 33,93 34,94 35,93 36,92 37,93 38,92 39,93 40,92 41,91 42,92 43,91 44,90 45,91 46,92 47,91 48,90 49,91 50,90 51,89 52,90 53,89 54,90 55,91 56,90 57,91 58,92 59,93 60,92 61,93 62,92 63,91 64,92 65,93 66,92 67,91 68,92 69,93 70,94 71,93 72,92 73,91 74,90 75,89 76,88 77,89 78,90 79,91 80,90 81,89 82,88 83,89 84,88 85,87 86,88 87,87 88,88 89,89 90,88 91,87 92,88 93,89 94,90 95,91 96,90 97,89 98,88 99,89 100,88 101,87 102,86 103,87 104,86 105,87 106,88 107,89 108,90 109,91 110,92 111,91 112,92 113,93 114,94 115,95 116,94 117,95 118,96 119,95 120,94 121,95 122,94 123,95 124,96 125,97 126,98 127,99 128,98 129,99 130,98 131,97 132,96 133,97 134,98 135,97 136,96 137,97 138,96 139,95 140,94 141,95 142,94 143,93 144,92 145,91 146,90 147,89 148,90 149,89 150,90 151,91 152,92 153,93 154,94 155,93 156,94 157,95 158,96 159,95 160,94 161,93 162,92 163,93 164,94 165,95 166,96 167,95 168,96 169,95 170,94 171,95 172,96 173,97 174,98 175,99 176,100 177,101 178,100 179,99 180,100 181,99 182,98 183,99 184,100 185,99 186,100 187,101 188,100 189,99 190,100 191,99 192,98 193,97 194,98 195,97 196,96 197,95 198,94 199,93 200,94 201,93 202,92 203,93 204,94 205,93 206,92 207,93 208,92 209,93 210,94 211,95 212,96 213,97 214,98 215,99 216,100 217,99 218,100 219,101 220,100 221,101 222,102 223,103 224,102 225,103 226,104 227,103 228,104 229,103 230,102 231,101 232,100 233,101 234,100 235,101 236,100 237,99 238,98 239,97 240,98 241,99 242,100 243,101 244,102 245,103 246,102 247,101 248,102 249,103 250,102 251,101 252,102 253,101 254,100 255,101 256,102 257,103 258,102 259,101 260,100 261,99 262,98 263,99 264,98 265,97 266,98 267,97 268,96 269,95 270,94 271,93 272,94 273,95 274,96 275,97 276,96 277,95 278,96 279,95 280,96 281,95 282,94 283,95 284,94 285,95 286,96 287,95 288,94 289,93 290,94 291,93 292,92 293,91 294,92 295,93 296,94 297,93 298,92 299,93 300,94 301,95 302,94 303,95 304,96 305,97 306,98 307,99 308,100 309,99 310,100 311,101 312,100 313,99 314,100 315,101 316,100 317,99 318,98 319,97 320,98 321,97 322,98 323,99 324,98 325,99 326,98 327,97 328,98 329,99 330,100 331,101 332,102 333,103 334,102 335,101 336,100 337,99 338,98 339,97 340,96 341,97 342,96 343,95 344,94 345,93 346,92 347,91 348,92 349,91 350,90 351,89 352,90 353,91 354,92 355,93 356,92 357,91 358,92 359,91 360,92 361,93 362,92 363,91 364,90 365,89 366,90 367,91 368,90 369,91 370,92 371,93 372,94 373,93 374,92 375,93 376,92 377,91 378,90 379,89 380,90 381,89 382,90 383,91 384,90 385,89 386,90 387,89 388,90 389,91 390,90 391,91 392,92 393,93 394,94 395,95 396,96 397,97 398,98 399,99 400,200 " style="fill:rgb(150, 108, 102);stroke:rgb(50, 8, 2)"></polygon><polygon points="0,200 0,100 1,101 2,102 3,103 4,104 5,105 6,104 7,105 8,106 9,107 10,106 11,107 12,108 13,107 14,108 15,109 16,110 17,111 18,110 19,111 20,112 21,113 22,114 23,115 24,114 25,113 26,114 27,113 28,112 29,111 30,112 31,113 32,114 33,115 34,114 35,115 36,116 37,117 38,116 39,117 40,118 41,117 42,118 43,119 44,118 45,117 46,118 47,119 48,120 49,119 50,118 51,119 52,120 53,119 54,118 55,119 56,118 57,117 58,116 59,115 60,114 61,115 62,116 63,117 64,118 65,119 66,118 67,117 68,118 69,117 70,118 71,119 72,118 73,117 74,118 75,117 76,118 77,119 78,120 79,119 80,118 81,117 82,118 83,119 84,120 85,121 86,122 87,123 88,124 89,123 90,122 91,123 92,124 93,125 94,126 95,127 96,126 97,127 98,126 99,127 100,128 101,129 102,128 103,127 104,126 105,127 106,126 107,125 108,126 109,127 110,128 111,129 112,128 113,129 114,130 115,131 116,132 117,131 118,130 119,129 120,130 121,129 122,128 123,129 124,130 125,131 126,132 127,133 128,132 129,131 130,130 131,131 132,130 133,131 134,132 135,131 136,130 137,129 138,128 139,129 140,128 141,127 142,128 143,127 144,126 145,127 146,126 147,125 148,124 149,123 150,124 151,125 152,124 153,123 154,124 155,125 156,124 157,125 158,124 159,125 160,126 161,125 162,124 163,123 164,122 165,123 166,124 167,125 168,126 169,125 170,126 171,125 172,124 173,125 174,126 175,127 176,128 177,129 178,128 179,127 180,128 181,127 182,128 183,127 184,126 185,125 186,126 187,127 188,128 189,129 190,128 191,129 192,130 193,129 194,130 195,129 196,128 197,127 198,126 199,125 200,126 201,127 202,128 203,127 204,126 205,127 206,126 207,127 208,126 209,127 210,128 211,129 212,128 213,127 214,128 215,129 216,130 217,131 218,130 219,129 220,128 221,129 222,130 223,129 224,128 225,129 226,128 227,127 228,128 229,129 230,128 231,127 232,126 233,127 234,128 235,129 236,130 237,131 238,132 239,133 240,132 241,133 242,132 243,133 244,132 245,131 246,132 247,131 248,130 249,129 250,130 251,131 252,130 253,129 254,128 255,129 256,130 257,129 258,130 259,131 260,130 261,131 262,130 263,131 264,132 265,133 266,134 267,135 268,136 269,137 270,136 271,137 272,136 273,135 274,136 275,135 276,136 277,135 278,136 279,135 280,136 281,137 282,138 283,137 284,136 285,137 286,136 287,137 288,136 289,135 290,136 291,137 292,136 293,135 294,136 295,137 296,138 297,137 298,136 299,135 300,136 301,137 302,136 303,135 304,136 305,137 306,138 307,137 308,138 309,139 310,138 311,137 312,136 313,137 314,136 315,137 316,136 317,137 318,138 319,137 320,136 321,135 322,134 323,133 324,132 325,131 326,130 327,131 328,130 329,129 330,128 331,127 332,128 333,129 334,128 335,127 336,128 337,127 338,128 339,127 340,128 341,127 342,128 343,127 344,126 345,127 346,126 347,127 348,126 349,125 350,126 351,125 352,124 353,125 354,124 355,125 356,126 357,125 358,126 359,125 360,124 361,125 362,126 363,127 364,128 365,127 366,126 367,127 368,128 369,127 370,128 371,127 372,126 373,127 374,126 375,127 376,126 377,127 378,128 379,127 380,126 381,125 382,126 383,125 384,124 385,125 386,124 387,123 388,124 389,125 390,124 391,123 392,122 393,123 394,124 395,123 396,122 397,123 398,122 399,121 400,200 " style="fill:rgb(191, 215, 190);stroke:rgb(91, 115, 90)"></polygon><polygon points="0,200 0,100 1,101 2,102 3,103 4,102 5,101 6,102 7,103 8,102 9,103 10,102 11,101 12,100 13,99 14,98 15,99 16,98 17,97 18,98 19,99 20,100 21,101 22,100 23,99 24,100 25,101 26,100 27,101 28,100 29,101 30,102 31,101 32,102 33,101 34,102 35,103 36,104 37,105 38,106 39,105 40,106 41,105 42,104 43,103 44,104 45,103 46,104 47,103 48,102 49,103 50,102 51,103 52,102 53,103 54,102 55,101 56,100 57,99 58,100 59,101 60,100 61,99 62,98 63,97 64,96 65,97 66,98 67,97 68,96 69,95 70,94 71,93 72,94 73,95 74,96 75,97 76,96 77,97 78,98 79,97 80,96 81,95 82,96 83,97 84,96 85,95 86,96 87,95 88,94 89,95 90,96 91,95 92,94 93,95 94,94 95,93 96,94 97,93 98,94 99,95 100,96 101,97 102,98 103,97 104,96 105,97 106,96 107,95 108,96 109,95 110,94 111,93 112,92 113,91 114,92 115,93 116,94 117,95 118,94 119,93 120,92 121,93 122,94 123,93 124,92 125,91 126,92 127,93 128,94 129,93 130,94 131,95 132,96 133,95 134,96 135,97 136,98 137,99 138,100 139,99 140,98 141,97 142,96 143,97 144,98 145,97 146,96 147,95 148,96 149,95 150,94 151,95 152,94 153,95 154,96 155,97 156,96 157,97 158,96 159,95 160,96 161,95 162,94 163,95 164,96 165,97 166,96 167,97 168,96 169,97 170,96 171,95 172,94 173,95 174,94 175,95 176,94 177,93 178,92 179,91 180,92 181,91 182,92 183,93 184,92 185,93 186,94 187,95 188,96 189,97 190,98 191,97 192,98 193,97 194,98 195,97 196,98 197,99 198,98 199,97 200,96 201,97 202,96 203,97 204,96 205,97 206,96 207,97 208,98 209,97 210,96 211,97 212,96 213,95 214,94 215,93 216,94 217,95 218,94 219,95 220,94 221,95 222,94 223,93 224,94 225,93 226,92 227,93 228,92 229,93 230,92 231,93 232,92 233,93 234,94 235,93 236,92 237,93 238,94 239,95 240,94 241,95 242,96 243,97 244,96 245,95 246,96 247,95 248,94 249,93 250,94 251,95 252,96 253,97 254,96 255,97 256,98 257,99 258,98 259,99 260,100 261,101 262,100 263,101 264,100 265,99 266,100 267,99 268,98 269,99 270,98 271,99 272,98 273,97 274,98 275,97 276,98 277,97 278,96 279,97 280,98 281,99 282,98 283,97 284,96 285,95 286,94 287,95 288,94 289,93 290,94 291,93 292,92 293,91 294,92 295,91 296,90 297,91 298,90 299,91 300,90 301,89 302,90 303,89 304,88 305,89 306,88 307,87 308,86 309,87 310,86 311,87 312,86 313,85 314,84 315,85 316,84 317,83 318,82 319,81 320,82 321,83 322,84 323,83 324,84 325,83 326,84 327,83 328,82 329,81 330,80 331,79 332,80 333,81 334,80 335,81 336,80 337,79 338,80 339,79 340,78 341,77 342,76 343,77 344,76 345,77 346,78 347,77 348,76 349,77 350,78 351,79 352,78 353,79 354,78 355,77 356,76 357,77 358,76 359,75 360,76 361,75 362,76 363,77 364,76 365,75 366,74 367,73 368,72 369,71 370,72 371,71 372,72 373,73 374,72 375,73 376,72 377,73 378,74 379,75 380,74 381,73 382,74 383,73 384,72 385,71 386,70 387,71 388,70 389,71 390,70 391,71 392,70 393,69 394,68 395,67 396,66 397,67 398,66 399,65 400,200 " style="fill:rgb(133, 244, 172);stroke:rgb(33, 144, 72)"></polygon><polygon points="0,200 0,100 1,101 2,100 3,99 4,98 5,97 6,98 7,99 8,98 9,99 10,98 11,97 12,96 13,97 14,96 15,97 16,98 17,97 18,96 19,97 20,98 21,99 22,98 23,99 24,98 25,99 26,98 27,97 28,98 29,97 30,98 31,97 32,98 33,99 34,98 35,99 36,98 37,97 38,98 39,97 40,96 41,97 42,98 43,97 44,96 45,97 46,98 47,97 48,96 49,95 50,94 51,95 52,94 53,95 54,94 55,95 56,94 57,95 58,94 59,93 60,94 61,95 62,94 63,93 64,92 65,91 66,90 67,89 68,90 69,91 70,92 71,93 72,92 73,91 74,92 75,93 76,92 77,91 78,92 79,93 80,94 81,95 82,94 83,95 84,96 85,97 86,96 87,97 88,96 89,97 90,96 91,97 92,98 93,97 94,96 95,97 96,98 97,97 98,96 99,97 100,98 101,97 102,96 103,97 104,96 105,97 106,98 107,99 108,98 109,97 110,96 111,97 112,96 113,95 114,94 115,95 116,96 117,97 118,98 119,99 120,98 121,99 122,100 123,101 124,100 125,99 126,100 127,101 128,102 129,103 130,102 131,101 132,100 133,101 134,102 135,103 136,104 137,105 138,104 139,105 140,106 141,107 142,108 143,107 144,106 145,107 146,106 147,105 148,104 149,105 150,104 151,105 152,106 153,105 154,106 155,105 156,104 157,105 158,104 159,103 160,102 161,101 162,102 163,101 164,100 165,101 166,100 167,99 168,98 169,99 170,98 171,99 172,100 173,99 174,98 175,97 176,96 177,95 178,96 179,95 180,94 181,93 182,94 183,93 184,92 185,93 186,92 187,91 188,92 189,91 190,90 191,91 192,90 193,89 194,88 195,87 196,86 197,85 198,86 199,85 200,86 201,87 202,88 203,89 204,88 205,89 206,90 207,91 208,90 209,91 210,90 211,89 212,88 213,87 214,88 215,87 216,88 217,87 218,88 219,89 220,90 221,89 222,90 223,89 224,90 225,91 226,92 227,91 228,90 229,89 230,90 231,89 232,88 233,89 234,90 235,89 236,88 237,87 238,88 239,89 240,88 241,89 242,90 243,91 244,92 245,93 246,94 247,95 248,94 249,95 250,94 251,95 252,94 253,93 254,94 255,93 256,94 257,95 258,94 259,93 260,94 261,93 262,94 263,93 264,92 265,93 266,92 267,93 268,94 269,93 270,94 271,93 272,94 273,95 274,96 275,95 276,96 277,97 278,98 279,99 280,98 281,99 282,98 283,99 284,98 285,99 286,100 287,99 288,98 289,99 290,98 291,99 292,100 293,101 294,102 295,101 296,102 297,101 298,100 299,99 300,100 301,99 302,100 303,101 304,100 305,99 306,100 307,99 308,98 309,97 310,98 311,97 312,96 313,97 314,96 315,95 316,94 317,93 318,94 319,93 320,94 321,93 322,92 323,91 324,90 325,91 326,92 327,93 328,94 329,95 330,94 331,93 332,94 333,93 334,92 335,91 336,92 337,91 338,92 339,91 340,92 341,91 342,90 343,89 344,88 345,89 346,88 347,87 348,86 349,85 350,84 351,83 352,82 353,81 354,80 355,81 356,82 357,81 358,80 359,79 360,78 361,77 362,76 363,77 364,78 365,79 366,78 367,79 368,78 369,79 370,80 371,79 372,80 373,79 374,78 375,77 376,76 377,77 378,76 379,77 380,76 381,77 382,78 383,79 384,80 385,81 386,80 387,79 388,80 389,81 390,82 391,83 392,82 393,83 394,82 395,83 396,82 397,83 398,84 399,85 400,200 " style="fill:rgb(234, 197, 23);stroke:rgb(134, 97, 0)"></polygon><polygon points="0,200 0,100 1,99 2,98 3,99 4,98 5,99 6,100 7,99 8,98 9,99 10,100 11,99 12,98 13,99 14,98 15,99 16,98 17,99 18,100 19,99 20,98 21,99 22,100 23,101 24,102 25,103 26,102 27,101 28,102 29,101 30,102 31,101 32,100 33,99 34,100 35,101 36,102 37,101 38,100 39,101 40,102 41,101 42,102 43,103 44,104 45,105 46,104 47,105 48,104 49,105 50,106 51,107 52,106 53,105 54,106 55,105 56,104 57,103 58,102 59,101 60,102 61,101 62,102 63,103 64,104 65,103 66,102 67,101 68,100 69,101 70,102 71,101 72,102 73,103 74,102 75,103 76,102 77,103 78,104 79,105 80,104 81,105 82,104 83,105 84,104 85,105 86,106 87,107 88,108 89,109 90,110 91,109 92,108 93,107 94,106 95,105 96,104 97,105 98,106 99,105 100,106 101,105 102,106 103,105 104,106 105,105 106,104 107,105 108,104 109,103 110,104 111,103 112,102 113,103 114,104 115,105 116,104 117,105 118,104 119,103 120,102 121,103 122,104 123,103 124,104 125,105 126,104 127,103 128,104 129,105 130,104 131,103 132,102 133,101 134,100 135,101 136,102 137,101 138,102 139,103 140,102 141,101 142,102 143,101 144,102 145,101 146,102 147,103 148,104 149,105 150,104 151,103 152,104 153,105 154,106 155,105 156,104 157,105 158,106 159,107 160,108 161,107 162,106 163,105 164,104 165,103 166,102 167,103 168,104 169,103 170,102 171,103 172,102 173,103 174,102 175,103 176,102 177,103 178,102 179,103 180,104 181,105 182,106 183,105 184,104 185,105 186,106 187,105 188,106 189,105 190,106 191,107 192,108 193,109 194,110 195,111 196,112 197,111 198,110 199,111 200,110 201,109 202,110 203,109 204,108 205,109 206,108 207,109 208,110 209,109 210,110 211,109 212,108 213,109 214,108 215,107 216,106 217,107 218,106 219,107 220,106 221,105 222,104 223,103 224,104 225,105 226,106 227,107 228,106 229,107 230,106 231,107 232,108 233,109 234,110 235,109 236,110 237,109 238,110 239,109 240,108 241,107 242,106 243,107 244,108 245,109 246,108 247,107 248,106 249,107 250,106 251,105 252,104 253,105 254,106 255,105 256,104 257,103 258,102 259,101 260,100 261,101 262,102 263,101 264,100 265,101 266,102 267,103 268,102 269,101 270,100 271,99 272,98 273,97 274,98 275,97 276,98 277,97 278,96 279,97 280,96 281,95 282,96 283,97 284,96 285,97 286,96 287,97 288,98 289,97 290,96 291,95 292,94 293,93 294,92 295,93 296,94 297,93 298,94 299,95 300,96 301,95 302,94 303,95 304,94 305,93 306,94 307,95 308,96 309,97 310,96 311,95 312,96 313,97 314,96 315,95 316,94 317,95 318,94 319,93 320,92 321,91 322,92 323,93 324,94 325,95 326,96 327,95 328,96 329,97 330,98 331,97 332,96 333,95 334,96 335,95 336,94 337,93 338,94 339,95 340,94 341,93 342,92 343,93 344,94 345,95 346,94 347,93 348,94 349,93 350,94 351,95 352,96 353,97 354,96 355,97 356,96 357,97 358,96 359,97 360,96 361,97 362,96 363,95 364,94 365,93 366,94 367,93 368,94 369,93 370,94 371,95 372,96 373,95 374,94 375,95 376,94 377,93 378,92 379,91 380,92 381,91 382,92 383,93 384,94 385,95 386,96 387,97 388,96 389,95 390,94 391,93 392,94 393,95 394,96 395,95 396,94 397,95 398,96 399,97 400,200 " style="fill:rgb(103, 17, 179);stroke:rgb(3, 0, 79)"></polygon><polygon points="0,200 0,100 1,101 2,100 3,101 4,100 5,101 6,100 7,99 8,98 9,97 10,98 11,97 12,96 13,95 14,94 15,95 16,96 17,97 18,96 19,95 20,94 21,95 22,94 23,93 24,94 25,93 26,92 27,91 28,92 29,91 30,90 31,89 32,90 33,89 34,88 35,87 36,86 37,87 38,86 39,85 40,86 41,85 42,84 43,83 44,82 45,81 46,82 47,83 48,82 49,83 50,82 51,81 52,80 53,81 54,82 55,83 56,84 57,83 58,84 59,83 60,84 61,85 62,86 63,87 64,86 65,87 66,86 67,87 68,86 69,87 70,86 71,85 72,86 73,87 74,88 75,89 76,88 77,89 78,90 79,91 80,90 81,91 82,92 83,91 84,92 85,91 86,92 87,93 88,92 89,93 90,94 91,95 92,94 93,95 94,96 95,95 96,96 97,95 98,96 99,95 100,96 101,97 102,98 103,99 104,98 105,99 106,100 107,99 108,100 109,101 110,100 111,101 112,102 113,103 114,104 115,103 116,104 117,105 118,104 119,105 120,106 121,105 122,104 123,103 124,102 125,101 126,102 127,103 128,102 129,103 130,104 131,103 132,104 133,105 134,104 135,103 136,102 137,103 138,104 139,105 140,104 141,103 142,102 143,103 144,104 145,103 146,102 147,103 148,102 149,103 150,104 151,105 152,104 153,105 154,104 155,103 156,104 157,103 158,104 159,105 160,106 161,107 162,106 163,105 164,104 165,105 166,106 167,107 168,108 169,109 170,110 171,111 172,112 173,113 174,112 175,111 176,110 177,111 178,112 179,111 180,112 181,111 182,110 183,111 184,110 185,109 186,110 187,111 188,110 189,109 190,110 191,111 192,112 193,113 194,112 195,111 196,110 197,109 198,108 199,109 200,110 201,109 202,110 203,109 204,108 205,107 206,108 207,109 208,108 209,107 210,108 211,107 212,106 213,105 214,106 215,105 216,104 217,103 218,104 219,105 220,104 221,105 222,106 223,107 224,108 225,109 226,110 227,111 228,112 229,113 230,112 231,111 232,112 233,111 234,110 235,109 236,110 237,109 238,110 239,111 240,110 241,111 242,110 243,111 244,110 245,109 246,110 247,111 248,110 249,109 250,108 251,109 252,110 253,111 254,110 255,109 256,110 257,111 258,112 259,113 260,114 261,113 262,114 263,113 264,114 265,115 266,116 267,117 268,118 269,119 270,118 271,117 272,116 273,115 274,114 275,115 276,114 277,115 278,116 279,115 280,114 281,113 282,114 283,113 284,114 285,113 286,114 287,113 288,114 289,113 290,114 291,113 292,114 293,113 294,114 295,115 296,116 297,117 298,116 299,117 300,118 301,119 302,120 303,119 304,120 305,119 306,120 307,121 308,120 309,121 310,122 311,123 312,124 313,123 314,122 315,121 316,122 317,123 318,122 319,123 320,122 321,123 322,124 323,123 324,124 325,125 326,124 327,125 328,124 329,123 330,124 331,123 332,124 333,123 334,124 335,123 336,122 337,121 338,122 339,123 340,122 341,121 342,120 343,121 344,122 345,123 346,124 347,125 348,126 349,127 350,126 351,125 352,126 353,125 354,124 355,125 356,126 357,127 358,126 359,125 360,126 361,125 362,126 363,127 364,126 365,125 366,124 367,123 368,124 369,125 370,124 371,123 372,122 373,123 374,122 375,121 376,122 377,121 378,122 379,121 380,120 381,119 382,118 383,117 384,116 385,115 386,116 387,117 388,116 389,117 390,118 391,119 392,118 393,117 394,118 395,117 396,116 397,117 398,116 399,117 400,200 " style="fill:rgb(131, 30, 29);stroke:rgb(31, 0, 0)"></polygon><polygon points="0,200 0,100 1,101 2,100 3,101 4,102 5,101 6,102 7,103 8,102 9,103 10,102 11,101 12,102 13,103 14,104 15,103 16,104 17,105 18,104 19,103 20,102 21,101 22,100 23,101 24,100 25,101 26,100 27,99 28,100 29,101 30,100 31,99 32,98 33,97 34,96 35,95 36,96 37,97 38,96 39,97 40,98 41,97 42,96 43,95 44,96 45,97 46,98 47,99 48,100 49,99 50,100 51,99 52,100 53,101 54,102 55,103 56,104 57,105 58,106 59,107 60,108 61,109 62,110 63,111 64,112 65,111 66,110 67,109 68,110 69,111 70,110 71,109 72,108 73,109 74,110 75,109 76,110 77,111 78,112 79,111 80,112 81,113 82,114 83,115 84,116 85,117 86,118 87,117 88,118 89,117 90,118 91,119 92,118 93,119 94,118 95,119 96,120 97,121 98,120 99,121 100,120 101,121 102,122 103,123 104,124 105,125 106,126 107,127 108,126 109,127 110,126 111,125 112,124 113,125 114,126 115,127 116,128 117,129 118,128 119,127 120,126 121,125 122,126 123,125 124,126 125,127 126,126 127,127 128,128 129,129 130,128 131,129 132,130 133,129 134,128 135,129 136,128 137,129 138,128 139,127 140,126 141,125 142,124 143,123 144,124 145,125 146,124 147,125 148,126 149,125 150,126 151,125 152,124 153,123 154,124 155,125 156,126 157,125 158,124 159,125 160,126 161,127 162,128 163,127 164,128 165,127 166,126 167,127 168,126 169,127 170,128 171,129 172,130 173,129 174,130 175,129 176,128 177,129 178,128 179,129 180,128 181,129 182,130 183,131 184,132 185,131 186,132 187,131 188,132 189,133 190,132 191,133 192,134 193,135 194,134 195,133 196,132 197,133 198,134 199,133 200,132 201,133 202,134 203,135 204,134 205,135 206,136 207,137 208,138 209,139 210,138 211,137 212,138 213,137 214,138 215,137 216,136 217,137 218,138 219,137 220,138 221,137 222,136 223,135 224,134 225,133 226,134 227,135 228,134 229,133 230,134 231,133 232,132 233,131 234,130 235,131 236,130 237,129 238,128 239,127 240,128 241,127 242,126 243,127 244,128 245,129 246,130 247,129 248,130 249,131 250,130 251,129 252,128 253,129 254,130 255,131 256,130 257,131 258,130 259,129 260,128 261,129 262,130 263,129 264,128 265,129 266,128 267,127 268,126 269,125 270,124 271,125 272,126 273,127 274,126 275,125 276,126 277,125 278,126 279,125 280,126 281,125 282,126 283,125 284,126 285,125 286,126 287,125 288,126 289,125 290,124 291,125 292,126 293,127 294,126 295,125 296,126 297,125 298,126 299,127 300,128 301,129 302,128 303,127 304,128 305,127 306,128 307,129 308,128 309,127 310,128 311,129 312,128 313,127 314,126 315,125 316,124 317,123 318,122 319,123 320,124 321,125 322,126 323,125 324,126 325,127 326,128 327,127 328,126 329,127 330,128 331,129 332,128 333,129 334,128 335,127 336,126 337,125 338,124 339,125 340,124 341,123 342,122 343,123 344,122 345,123 346,122 347,123 348,124 349,123 350,122 351,123 352,122 353,121 354,122 355,121 356,120 357,121 358,122 359,123 360,124 361,125 362,124 363,123 364,122 365,123 366,122 367,123 368,122 369,123 370,124 371,123 372,122 373,121 374,122 375,121 376,122 377,123 378,122 379,121 380,122 381,121 382,122 383,123 384,122 385,121 386,120 387,119 388,120 389,121 390,122 391,121 392,120 393,121 394,120 395,121 396,122 397,121 398,122 399,123 400,200 " style="fill:rgb(115, 127, 236);stroke:rgb(15, 27, 136)"></polygon><polygon points="0,200 0,100 1,99 2,98 3,97 4,98 5,99 6,100 7,99 8,100 9,99 10,100 11,101 12,102 13,101 14,100 15,99 16,98 17,99 18,98 19,97 20,98 21,97 22,98 23,97 24,96 25,95 26,94 27,93 28,92 29,93 30,94 31,93 32,94 33,95 34,96 35,95 36,96 37,95 38,96 39,95 40,94 41,93 42,92 43,93 44,94 45,93 46,94 47,95 48,94 49,93 50,94 51,93 52,94 53,93 54,94 55,95 56,94 57,95 58,96 59,97 60,96 61,95 62,94 63,93 64,94 65,95 66,94 67,93 68,92 69,93 70,94 71,95 72,94 73,95 74,96 75,97 76,96 77,97 78,98 79,97 80,98 81,97 82,96 83,97 84,98 85,97 86,96 87,97 88,98 89,97 90,96 91,95 92,96 93,95 94,94 95,95 96,94 97,93 98,94 99,93 100,92 101,91 102,90 103,91 104,90 105,91 106,90 107,89 108,90 109,89 110,88 111,87 112,86 113,85 114,86 115,85 116,86 117,85 118,86 119,87 120,88 121,87 122,86 123,85 124,84 125,83 126,84 127,85 128,86 129,87 130,88 131,87 132,86 133,85 134,86 135,85 136,84 137,83 138,84 139,85 140,84 141,85 142,86 143,87 144,88 145,87 146,88 147,87 148,88 149,89 150,88 151,89 152,88 153,87 154,88 155,87 156,88 157,87 158,86 159,85 160,84 161,85 162,84 163,83 164,82 165,83 166,82 167,81 168,80 169,81 170,82 171,81 172,82 173,81 174,80 175,81 176,82 177,83 178,82 179,83 180,84 181,83 182,84 183,85 184,84 185,83 186,84 187,83 188,84 189,83 190,82 191,83 192,82 193,83 194,82 195,83 196,84 197,85 198,84 199,85 200,86 201,85 202,86 203,87 204,88 205,87 206,86 207,87 208,86 209,85 210,84 211,85 212,84 213,85 214,86 215,85 216,86 217,85 218,86 219,87 220,86 221,87 222,86 223,85 224,84 225,85 226,86 227,85 228,84 229,83 230,82 231,83 232,82 233,81 234,82 235,83 236,84 237,83 238,84 239,85 240,84 241,85 242,86 243,87 244,88 245,87 246,86 247,87 248,86 249,87 250,86 251,87 252,88 253,87 254,88 255,89 256,88 257,89 258,90 259,91 260,92 261,91 262,90 263,91 264,92 265,91 266,90 267,89 268,90 269,89 270,88 271,87 272,86 273,85 274,86 275,85 276,84 277,83 278,84 279,83 280,84 281,83 282,82 283,81 284,82 285,83 286,82 287,83 288,82 289,83 290,82 291,83 292,82 293,83 294,82 295,83 296,82 297,81 298,82 299,81 300,80 301,79 302,78 303,79 304,80 305,79 306,78 307,77 308,76 309,75 310,76 311,77 312,78 313,79 314,80 315,81 316,82 317,81 318,80 319,81 320,82 321,81 322,82 323,81 324,80 325,79 326,78 327,77 328,76 329,75 330,74 331,75 332,74 333,75 334,74 335,73 336,72 337,71 338,72 339,73 340,74 341,73 342,72 343,73 344,72 345,71 346,70 347,71 348,70 349,69 350,70 351,71 352,72 353,73 354,72 355,71 356,70 357,71 358,72 359,71 360,70 361,69 362,70 363,71 364,72 365,73 366,74 367,75 368,74 369,73 370,74 371,73 372,74 373,73 374,72 375,73 376,72 377,71 378,70 379,69 380,70 381,69 382,68 383,67 384,68 385,67 386,68 387,69 388,68 389,69 390,68 391,69 392,68 393,69 394,68 395,67 396,66 397,65 398,64 399,65 400,200 " style="fill:rgb(186, 72, 48);stroke:rgb(86, 0, 0)"></polygon><polygon points="0,200 0,100 1,101 2,102 3,103 4,104 5,105 6,104 7,105 8,104 9,103 10,102 11,103 12,102 13,101 14,100 15,101 16,102 17,101 18,100 19,101 20,102 21,101 22,100 23,99 24,100 25,99 26,98 27,99 28,100 29,101 30,102 31,101 32,102 33,101 34,100 35,101 36,102 37,103 38,102 39,103 40,104 41,103 42,104 43,103 44,104 45,105 46,106 47,107 48,106 49,107 50,106 51,107 52,106 53,107 54,106 55,105 56,104 57,105 58,106 59,107 60,108 61,109 62,108 63,107 64,108 65,109 66,110 67,109 68,108 69,107 70,108 71,109 72,110 73,109 74,110 75,109 76,110 77,111 78,112 79,113 80,114 81,113 82,114 83,113 84,112 85,111 86,112 87,113 88,112 89,113 90,114 91,115 92,116 93,117 94,118 95,117 96,118 97,117 98,116 99,115 100,116 101,117 102,118 103,117 104,116 105,115 106,114 107,113 108,112 109,113 110,112 111,111 112,110 113,111 114,112 115,111 116,110 117,111 118,112 119,113 120,112 121,113 122,114 123,115 124,114 125,115 126,114 127,115 128,114 129,115 130,114 131,113 132,112 133,111 134,110 135,109 136,110 137,109 138,108 139,107 140,106 141,105 142,104 143,103 144,102 145,101 146,100 147,101 148,100 149,99 150,100 151,99 152,98 153,97 154,98 155,99 156,98 157,99 158,98 159,97 160,96 161,95 162,94 163,95 164,96 165,95 166,96 167,97 168,96 169,97 170,98 171,97 172,96 173,95 174,96 175,97 176,98 177,97 178,98 179,99 180,100 181,99 182,100 183,101 184,100 185,99 186,98 187,97 188,96 189,95 190,96 191,97 192,98 193,97 194,96 195,97 196,98 197,99 198,100 199,99 200,100 201,101 202,102 203,103 204,102 205,103 206,102 207,101 208,102 209,103 210,102 211,101 212,100 213,99 214,98 215,97 216,98 217,99 218,100 219,99 220,100 221,101 222,100 223,99 224,98 225,97 226,96 227,95 228,96 229,97 230,96 231,95 232,96 233,95 234,96 235,95 236,94 237,93 238,94 239,93 240,92 241,93 242,92 243,93 244,94 245,93 246,94 247,93 248,94 249,93 250,92 251,91 252,90 253,89 254,88 255,87 256,86 257,85 258,86 259,87 260,88 261,87 262,86 263,87 264,88 265,87 266,88 267,89 268,90 269,91 270,90 271,89 272,88 273,87 274,88 275,87 276,86 277,85 278,84 279,85 280,86 281,85 282,86 283,87 284,86 285,85 286,86 287,85 288,86 289,87 290,86 291,87 292,88 293,87 294,86 295,87 296,88 297,89 298,90 299,91 300,90 301,91 302,90 303,89 304,90 305,89 306,90 307,91 308,92 309,93 310,94 311,95 312,94 313,95 314,96 315,95 316,94 317,95 318,96 319,95 320,96 321,97 322,98 323,97 324,96 325,97 326,98 327,99 328,100 329,101 330,100 331,99 332,100 333,101 334,100 335,99 336,98 337,99 338,98 339,99 340,100 341,99 342,98 343,97 344,98 345,99 346,100 347,99 348,100 349,101 350,100 351,99 352,100 353,99 354,98 355,97 356,98 357,97 358,98 359,97 360,96 361,97 362,98 363,97 364,98 365,99 366,98 367,97 368,98 369,97 370,96 371,97 372,98 373,99 374,98 375,97 376,98 377,97 378,98 379,97 380,98 381,99 382,98 383,99 384,100 385,101 386,100 387,99 388,98 389,99 390,98 391,97 392,98 393,99 394,98 395,97 396,96 397,97 398,98 399,99 400,200 " style="fill:rgb(154, 157, 189);stroke:rgb(54, 57, 89)"></polygon><polygon points="0,200 0,100 1,101 2,100 3,99 4,100 5,101 6,100 7,101 8,100 9,99 10,98 11,99 12,100 13,99 14,100 15,99 16,100 17,101 18,102 19,101 20,102 21,101 22,100 23,101 24,102 25,101 26,100 27,99 28,98 29,97 30,98 31,97 32,96 33,95 34,94 35,93 36,92 37,91 38,92 39,91 40,92 41,93 42,92 43,93 44,92 45,93 46,94 47,93 48,94 49,95 50,94 51,95 52,94 53,93 54,92 55,93 56,94 57,95 58,94 59,95 60,96 61,95 62,96 63,97 64,98 65,99 66,98 67,99 68,100 69,99 70,100 71,99 72,98 73,97 74,98 75,99 76,98 77,97 78,98 79,97 80,96 81,97 82,96 83,97 84,96 85,97 86,96 87,97 88,96 89,97 90,98 91,97 92,96 93,95 94,96 95,97 96,96 97,95 98,94 99,93 100,94 101,95 102,96 103,97 104,98 105,97 106,98 107,97 108,98 109,99 110,100 111,101 112,102 113,103 114,104 115,103 116,104 117,105 118,106 119,107 120,108 121,107 122,108 123,109 124,108 125,109 126,108 127,107 128,108 129,109 130,108 131,109 132,108 133,107 134,106 135,107 136,106 137,105 138,104 139,103 140,104 141,105 142,106 143,105 144,104 145,105 146,106 147,107 148,108 149,109 150,108 151,107 152,108 153,109 154,108 155,109 156,108 157,107 158,106 159,105 160,104 161,103 162,104 163,103 164,102 165,103 166,102 167,101 168,100 169,99 170,98 171,99 172,100 173,101 174,100 175,101 176,100 177,99 178,98 179,99 180,100 181,99 182,98 183,97 184,98 185,97 186,96 187,97 188,96 189,97 190,98 191,99 192,98 193,97 194,96 195,95 196,96 197,97 198,96 199,95 200,96 201,95 202,94 203,93 204,92 205,93 206,94 207,93 208,92 209,93 210,94 211,93 212,92 213,91 214,90 215,91 216,90 217,91 218,90 219,91 220,92 221,91 222,90 223,91 224,90 225,89 226,90 227,91 228,92 229,93 230,92 231,91 232,92 233,93 234,92 235,91 236,90 237,91 238,90 239,89 240,88 241,87 242,86 243,87 244,88 245,89 246,88 247,89 248,90 249,91 250,90 251,89 252,90 253,91 254,92 255,91 256,90 257,91 258,90 259,91 260,90 261,91 262,90 263,89 264,88 265,87 266,86 267,87 268,88 269,87 270,86 271,85 272,84 273,83 274,84 275,83 276,84 277,83 278,84 279,83 280,84 281,85 282,86 283,85 284,84 285,85 286,86 287,87 288,88 289,89 290,88 291,87 292,88 293,89 294,90 295,91 296,90 297,91 298,92 299,93 300,92 301,93 302,94 303,93 304,94 305,95 306,96 307,97 308,98 309,97 310,96 311,95 312,94 313,95 314,94 315,95 316,94 317,95 318,96 319,95 320,96 321,95 322,94 323,93 324,92 325,93 326,92 327,91 328,92 329,91 330,90 331,91 332,92 333,91 334,92 335,91 336,90 337,91 338,92 339,93 340,92 341,91 342,92 343,91 344,92 345,91 346,92 347,91 348,92 349,93 350,94 351,93 352,92 353,93 354,92 355,93 356,92 357,91 358,92 359,93 360,92 361,91 362,92 363,93 364,94 365,95 366,94 367,95 368,96 369,97 370,98 371,99 372,98 373,99 374,98 375,97 376,96 377,95 378,94 379,93 380,94 381,93 382,94 383,95 384,94 385,93 386,92 387,91 388,92 389,93 390,92 391,91 392,92 393,91 394,90 395,89 396,90 397,91 398,90 399,89 400,200 " style="fill:rgb(222, 126, 43);stroke:rgb(122, 26, 0)"></polygon></svg>